<svg xmlns="http://www.w3.org/2000/svg" width="51.419" height="5.754" viewBox="0 0 51.419 5.754">
  <path id="Caminho_1056" data-name="Caminho 1056" d="M796.952,4001.74c-1.947.376-2.179,1.283-2.153,2.1a10.125,10.125,0,0,0,.189,1.327,1.446,1.446,0,0,0,.551,1.163c.817.6,2.6.755,4.1.808,2.3.081,4.608-.023,6.912.031,3.094.073,6.155.16,9.257.129s6.2-.043,9.3-.044,6.207-.006,9.309-.036a73.523,73.523,0,0,0,8.79-.352,6.28,6.28,0,0,0,2.832-.867,7.642,7.642,0,0,0,.171-1.449,3.661,3.661,0,0,0-.3-1.925,1.836,1.836,0,0,0-1.234-.815c-.054-.015-.111-.027-.166-.041a31.534,31.534,0,0,0-5.716-.166q-3.59.041-7.181.066-7.308.05-14.617.033-7.246-.018-14.489-.1-1.826-.021-3.653-.047c-.494-.007-1-.008-1.493.026A.851.851,0,0,1,796.952,4001.74Z" transform="translate(-794.797 -4001.547)" fill="#ec386b"/>
</svg>
